<?xml version="1.0" encoding="UTF-8"?>
<svg width="170px" height="161px" viewBox="0 0 170 161" version="1.1" xmlns="http://www.w3.org/2000/svg" xmlns:xlink="http://www.w3.org/1999/xlink">
    <!-- Generator: Sketch 60.1 (88133) - https://sketch.com -->
    <title>画板</title>
    <desc>Created with Sketch.</desc>
    <defs>
        <linearGradient x1="50%" y1="0%" x2="50%" y2="100%" id="linearGradient-1">
            <stop stop-color="#B8D3F7" offset="0%"></stop>
            <stop stop-color="#92B4FC" offset="100%"></stop>
        </linearGradient>
        <linearGradient x1="100.028831%" y1="10.5994623%" x2="-0.0288308224%" y2="89.4005377%" id="linearGradient-2">
            <stop stop-color="#8BACFB" offset="0%"></stop>
            <stop stop-color="#5F87DA" offset="100%"></stop>
        </linearGradient>
    </defs>
    <g id="画板" stroke="none" stroke-width="1" fill="none" fill-rule="evenodd">
        <path d="M81,0 L162,0 L162,0 L162,81 C162,125.18278 126.18278,161 82,161 L81,161 C36.81722,161 1,125.18278 1,81 L1,80 C1,35.81722 36.81722,8.11624501e-15 81,0 Z" id="矩形" fill="#F8FAFE"></path>
        <g id="搜索结果空" transform="translate(28.000000, 24.000000)">
            <g id="编组-3">
                <path d="M11,0 L80.8810158,0 C86.9603386,1.70553599 90,8.27196524 90,19.6992878 C90,31.1266103 90,54.560181 90,90 L32.6469813,90 C24.9474822,90 18.7058049,83.8008658 18.7058049,76.1538462 L18.7058049,19.6992878 L18.7058049,19.6992878 C18.7058049,14.267404 18.3605906,10.4051075 17.670162,8.11239794 C16.9797335,5.81968839 14.7563461,3.11555575 11,0 Z" id="路径-41" stroke="#818286" stroke-width="0.5" fill="#FFFFFF" fill-rule="nonzero"></path>
                <path d="M57,72 L128.884058,72 C133.366369,72 137,75.6088563 137,80.0606061 L137,110 L137,110 L68.4321816,110 L68.4321816,85.7303391 C68.3032352,82.8237149 67.4654752,80.4416658 65.9189017,78.5841918 C64.3723281,76.7267179 61.3993608,74.5319872 57,72 Z" id="路径-42" stroke="#818286" stroke-width="0.5" fill="url(#linearGradient-1)" fill-rule="nonzero"></path>
                <path d="M35,90 C36.4573753,86.6200686 37.1069773,83.008568 39.5,79.449707 C43.0895342,74.1114157 46.5,72 53.5,72 C60.5,72 63.1145282,75.1207236 65.9189017,78.5841918 C67.7884841,80.8931706 68.9315485,84.4623576 68.5,90 L35,90 Z" id="路径-43" stroke="#818286" stroke-width="0.5" fill="#D4E2FF" fill-rule="nonzero"></path>
                <path d="M0.0154390727,25 L18.7642546,25 C19.4598175,14.4935333 18.6161952,7.64232611 16.2333879,4.44637843 C13.8505806,1.25043076 12.0774983,-0.222640363 10.9141409,0.0271650724 C6.19458388,1.67600482 3.16763138,4.25362123 1.83328342,7.76001428 C0.498935469,11.2664073 -0.107012649,17.0130692 0.0154390727,25 Z" id="路径-44" stroke="#818286" stroke-width="0.5" fill="#D4E2FF" fill-rule="nonzero"></path>
                <line x1="33" y1="21.5" x2="76" y2="21.5" id="路径-36" stroke="#91ABF8" stroke-width="2" stroke-linecap="round" stroke-linejoin="round"></line>
                <line x1="33" y1="34.5" x2="60" y2="34.5" id="路径-36备份-3" stroke="#91ABF8" stroke-width="2" stroke-linecap="round" stroke-linejoin="round"></line>
                <line x1="33" y1="44.5" x2="60" y2="44.5" id="路径-36备份-4" stroke="#91ABF8" stroke-width="2" stroke-linecap="round" stroke-linejoin="round"></line>
                <path d="M21.213938,78.1903387 L23.4622056,79.6235531 C24.0128157,79.9745532 24.165699,80.6918668 23.80368,81.2257179 C23.802239,81.2278428 23.8007909,81.229963 23.7993354,81.2320787 L17.4341787,90.4849412 C17.0702404,91.013989 16.3341062,91.1590258 15.786062,90.8096613 L13.5377944,89.3764469 C12.9871843,89.0254468 12.834301,88.3081332 13.19632,87.7742821 C13.197761,87.7721572 13.1992091,87.770037 13.2006646,87.7679213 L19.5658213,78.5150588 C19.9297596,77.986011 20.6658938,77.8409742 21.213938,78.1903387 Z" id="矩形" fill="url(#linearGradient-2)" fill-rule="nonzero"></path>
                <g id="椭圆形" transform="translate(15.000000, 60.000000)">
                    <g id="path-5-link" fill="#FFFFFF" fill-rule="nonzero">
                        <ellipse id="path-5" cx="11.35625" cy="10.5" rx="10.925" ry="10.5"></ellipse>
                    </g>
                    <g id="path-5-link" stroke="#AECEFF" stroke-width="3">
                        <ellipse id="path-5" cx="11.35625" cy="10.5" rx="10.925" ry="10.5"></ellipse>
                    </g>
                </g>
            </g>
        </g>
    </g>
</svg>